<svg width="142" height="93" viewBox="0 0 142 93" fill="none" xmlns="http://www.w3.org/2000/svg">
<path d="M22.208 49.632C22.592 49.568 22.88 49.536 23.072 49.536C23.28 49.536 23.72 49.592 24.392 49.704C24.456 49.832 24.544 50.24 24.656 50.928C24.784 51.616 24.848 52.176 24.848 52.608C24.848 53.024 24.8 53.488 24.704 54H13.064L12.848 52.68C13.632 52.36 14.304 52.128 14.864 51.984C14.864 51.936 14.792 47.704 14.648 39.288L12.656 38.664L12.848 37.2H19.088C19.072 37.2 19.072 37.216 19.088 37.248C19.12 37.28 19.152 37.352 19.184 37.464C19.232 37.56 19.28 37.68 19.328 37.824C19.424 38.08 19.488 38.504 19.52 39.096C18.704 39.224 18.168 39.304 17.912 39.336C17.848 44.856 17.808 48.976 17.792 51.696H21.68L22.208 49.632ZM32.2831 43.44C31.7071 43.44 31.0511 43.584 30.3151 43.872C30.1071 44.192 29.9071 44.76 29.7151 45.576C29.5391 46.376 29.4511 47.184 29.4511 48C29.4511 49.504 29.6751 50.576 30.1231 51.216C30.5711 51.84 31.2911 52.152 32.2831 52.152C33.2911 52.152 34.0191 51.84 34.4671 51.216C34.9151 50.576 35.1391 49.488 35.1391 47.952C35.1391 46.4 34.9071 45.264 34.4431 44.544C33.9951 43.808 33.2751 43.44 32.2831 43.44ZM32.2831 41.52C34.1551 41.52 35.6591 42.096 36.7951 43.248C37.9471 44.384 38.5231 45.976 38.5231 48.024C38.5231 50.056 37.9551 51.608 36.8191 52.68C35.6831 53.752 34.1711 54.288 32.2831 54.288C30.3951 54.288 28.8831 53.752 27.7471 52.68C26.6271 51.608 26.0671 50.056 26.0671 48.024C26.0671 45.976 26.6351 44.384 27.7711 43.248C28.9071 42.096 30.4111 41.52 32.2831 41.52ZM46.8532 41.52C48.4532 41.52 49.6132 41.912 50.3332 42.696C51.0532 43.48 51.4132 44.576 51.4132 45.984C51.4132 47.392 51.3332 49.296 51.1732 51.696L53.0692 51.912C53.0692 52.568 52.8852 53.264 52.5172 54H46.5412L46.3252 52.68C47.0772 52.376 47.7732 52.136 48.4132 51.96C48.3652 50.12 48.3172 48.576 48.2692 47.328C48.2212 46.064 48.1012 45.208 47.9092 44.76C47.7172 44.312 47.2932 44.088 46.6372 44.088C45.6452 44.088 44.7572 44.264 43.9732 44.616C43.9572 45.304 43.9092 46.432 43.8292 48C43.7652 49.552 43.7252 50.784 43.7092 51.696L45.5812 51.912C45.5812 52.568 45.3972 53.264 45.0292 54H39.0532L38.8372 52.68C39.6372 52.376 40.3572 52.136 40.9972 51.96C40.9812 51 40.9252 49.672 40.8292 47.976C40.7492 46.28 40.7012 45.024 40.6852 44.208C40.0932 44.144 39.4612 44.024 38.7892 43.848L38.9092 42.12C40.0292 41.816 41.2932 41.664 42.7012 41.664C42.8772 41.776 43.1172 42.12 43.4212 42.696C43.9652 42.424 44.6292 42.16 45.4132 41.904C46.1972 41.648 46.6772 41.52 46.8532 41.52ZM60.0343 51.936C60.5783 51.936 61.6823 51.56 63.3463 50.808C63.6983 51.32 63.9623 51.912 64.1383 52.584C63.2583 53.128 62.3943 53.552 61.5463 53.856C60.7143 54.144 60.1223 54.288 59.7703 54.288C57.8343 54.288 56.3623 53.752 55.3543 52.68C54.3623 51.608 53.8663 50.088 53.8663 48.12C53.8663 46.136 54.3623 44.544 55.3543 43.344C56.3463 42.128 57.8183 41.52 59.7703 41.52C61.3223 41.52 62.5063 42.024 63.3223 43.032C64.1383 44.04 64.5463 45.352 64.5463 46.968C64.5463 47.304 64.3543 47.688 63.9703 48.12L57.0583 48C57.0903 49.28 57.3303 50.256 57.7783 50.928C58.2263 51.6 58.9783 51.936 60.0343 51.936ZM59.5543 43.512C58.9463 43.512 58.3783 43.632 57.8503 43.872C57.4823 44.64 57.2503 45.352 57.1543 46.008C58.4023 45.96 59.8183 45.928 61.4023 45.912C61.3223 44.312 60.7063 43.512 59.5543 43.512ZM76.3955 49.632C76.7795 49.568 77.0675 49.536 77.2595 49.536C77.4675 49.536 77.9075 49.592 78.5795 49.704C78.6435 49.832 78.7315 50.24 78.8435 50.928C78.9715 51.616 79.0355 52.176 79.0355 52.608C79.0355 53.024 78.9875 53.488 78.8915 54H67.2515L67.0355 52.68C67.8195 52.36 68.4915 52.128 69.0515 51.984C69.0515 51.936 68.9795 47.704 68.8355 39.288L66.8435 38.664L67.0355 37.2H73.2755C73.2595 37.2 73.2595 37.216 73.2755 37.248C73.3075 37.28 73.3395 37.352 73.3715 37.464C73.4195 37.56 73.4675 37.68 73.5155 37.824C73.6115 38.08 73.6755 38.504 73.7075 39.096C72.8915 39.224 72.3555 39.304 72.0995 39.336C72.0355 44.856 71.9955 48.976 71.9795 51.696H75.8675L76.3955 49.632ZM85.1266 41.712C85.4306 41.712 85.6226 41.72 85.7026 41.736C85.7026 42.52 85.5666 43.248 85.2946 43.92C85.2306 47.376 85.1906 49.968 85.1746 51.696L87.0466 51.912C87.0466 52.568 86.8626 53.264 86.4946 54H80.5186L80.3026 52.68C81.2946 52.312 82.0146 52.072 82.4626 51.96L82.1986 44.184C81.2546 44.088 80.5586 43.968 80.1106 43.824C80.1106 43.424 80.1666 42.848 80.2786 42.096C81.2226 41.84 82.8386 41.712 85.1266 41.712ZM85.1266 37.176C85.2706 37.896 85.3426 38.448 85.3426 38.832C85.3426 39.2 85.3106 39.616 85.2466 40.08C84.6066 40.224 84.0626 40.296 83.6146 40.296C83.1826 40.296 82.6546 40.272 82.0306 40.224C81.8866 39.504 81.8146 38.96 81.8146 38.592C81.8146 38.208 81.8466 37.784 81.9106 37.32C82.5506 37.176 83.0866 37.104 83.5186 37.104C83.9666 37.104 84.5026 37.128 85.1266 37.176ZM95.5094 41.52C97.1094 41.52 98.2694 41.912 98.9894 42.696C99.7094 43.48 100.069 44.576 100.069 45.984C100.069 47.392 99.9894 49.296 99.8294 51.696L101.725 51.912C101.725 52.568 101.541 53.264 101.173 54H95.1974L94.9814 52.68C95.7334 52.376 96.4294 52.136 97.0694 51.96C97.0214 50.12 96.9734 48.576 96.9254 47.328C96.8774 46.064 96.7574 45.208 96.5654 44.76C96.3734 44.312 95.9494 44.088 95.2934 44.088C94.3014 44.088 93.4134 44.264 92.6294 44.616C92.6134 45.304 92.5654 46.432 92.4854 48C92.4214 49.552 92.3814 50.784 92.3654 51.696L94.2374 51.912C94.2374 52.568 94.0534 53.264 93.6854 54H87.7094L87.4934 52.68C88.2934 52.376 89.0134 52.136 89.6534 51.96C89.6374 51 89.5814 49.672 89.4854 47.976C89.4054 46.28 89.3574 45.024 89.3414 44.208C88.7494 44.144 88.1174 44.024 87.4454 43.848L87.5654 42.12C88.6854 41.816 89.9494 41.664 91.3574 41.664C91.5334 41.776 91.7734 42.12 92.0774 42.696C92.6214 42.424 93.2854 42.16 94.0694 41.904C94.8534 41.648 95.3334 41.52 95.5094 41.52ZM108.691 51.936C109.235 51.936 110.339 51.56 112.003 50.808C112.355 51.32 112.619 51.912 112.795 52.584C111.915 53.128 111.051 53.552 110.203 53.856C109.371 54.144 108.779 54.288 108.427 54.288C106.491 54.288 105.019 53.752 104.011 52.68C103.019 51.608 102.523 50.088 102.523 48.12C102.523 46.136 103.019 44.544 104.011 43.344C105.003 42.128 106.475 41.52 108.427 41.52C109.979 41.52 111.163 42.024 111.979 43.032C112.795 44.04 113.203 45.352 113.203 46.968C113.203 47.304 113.011 47.688 112.627 48.12L105.715 48C105.747 49.28 105.987 50.256 106.435 50.928C106.883 51.6 107.635 51.936 108.691 51.936ZM108.211 43.512C107.603 43.512 107.035 43.632 106.507 43.872C106.139 44.64 105.907 45.352 105.811 46.008C107.059 45.96 108.475 45.928 110.059 45.912C109.979 44.312 109.363 43.512 108.211 43.512ZM123.42 42.552L123.444 43.296C123.444 44.544 123.348 45.36 123.156 45.744C122.628 45.936 121.892 46.032 120.948 46.032L120.18 43.608C119.972 43.528 119.684 43.488 119.316 43.488C118.948 43.488 118.644 43.6 118.404 43.824C118.18 44.048 118.068 44.312 118.068 44.616C118.068 44.92 118.188 45.2 118.428 45.456C118.668 45.696 118.916 45.888 119.172 46.032C119.428 46.176 119.796 46.368 120.276 46.608C120.772 46.832 121.14 47.008 121.38 47.136C121.636 47.264 121.956 47.456 122.34 47.712C122.74 47.968 123.044 48.208 123.252 48.432C123.764 49.04 124.02 49.704 124.02 50.424C124.02 51.656 123.548 52.608 122.604 53.28C121.676 53.952 120.532 54.288 119.172 54.288C118.452 54.288 117.66 54.16 116.796 53.904C115.948 53.648 115.228 53.304 114.636 52.872C114.636 51.72 114.748 50.648 114.972 49.656C115.612 49.576 116.132 49.536 116.532 49.536C116.932 49.536 117.204 49.544 117.348 49.56L117.636 51.888C118.036 52.032 118.516 52.104 119.076 52.104C119.636 52.104 120.076 51.992 120.396 51.768C120.732 51.544 120.9 51.232 120.9 50.832C120.9 50.416 120.716 50.072 120.348 49.8C119.98 49.528 119.476 49.248 118.836 48.96C118.196 48.656 117.7 48.408 117.348 48.216C116.996 48.008 116.62 47.744 116.22 47.424C115.404 46.8 114.996 46.032 114.996 45.12C114.996 43.984 115.388 43.104 116.172 42.48C116.972 41.84 118.044 41.52 119.388 41.52C120.732 41.52 122.076 41.864 123.42 42.552ZM134.271 42.552L134.295 43.296C134.295 44.544 134.199 45.36 134.007 45.744C133.479 45.936 132.743 46.032 131.799 46.032L131.031 43.608C130.823 43.528 130.535 43.488 130.167 43.488C129.799 43.488 129.495 43.6 129.255 43.824C129.031 44.048 128.919 44.312 128.919 44.616C128.919 44.92 129.039 45.2 129.279 45.456C129.519 45.696 129.767 45.888 130.023 46.032C130.279 46.176 130.647 46.368 131.127 46.608C131.623 46.832 131.991 47.008 132.231 47.136C132.487 47.264 132.807 47.456 133.191 47.712C133.591 47.968 133.895 48.208 134.103 48.432C134.615 49.04 134.871 49.704 134.871 50.424C134.871 51.656 134.399 52.608 133.455 53.28C132.527 53.952 131.383 54.288 130.023 54.288C129.303 54.288 128.511 54.16 127.647 53.904C126.799 53.648 126.079 53.304 125.487 52.872C125.487 51.72 125.599 50.648 125.823 49.656C126.463 49.576 126.983 49.536 127.383 49.536C127.783 49.536 128.055 49.544 128.199 49.56L128.487 51.888C128.887 52.032 129.367 52.104 129.927 52.104C130.487 52.104 130.927 51.992 131.247 51.768C131.583 51.544 131.751 51.232 131.751 50.832C131.751 50.416 131.567 50.072 131.199 49.8C130.831 49.528 130.327 49.248 129.687 48.96C129.047 48.656 128.551 48.408 128.199 48.216C127.847 48.008 127.471 47.744 127.071 47.424C126.255 46.8 125.847 46.032 125.847 45.12C125.847 43.984 126.239 43.104 127.023 42.48C127.823 41.84 128.895 41.52 130.239 41.52C131.583 41.52 132.927 41.864 134.271 42.552Z" fill="white"/>
<path d="M100 92C45.3238 92 1 71.629 1 46.5C1 21.371 45.3238 1 100 1" stroke="white" stroke-width="2"/>
<path d="M99 92V61" stroke="white" stroke-width="2"/>
<path d="M100 62H61" stroke="white" stroke-width="2"/>
<path d="M99 1V27" stroke="white" stroke-width="2"/>
<path d="M99 26H141" stroke="white" stroke-width="2"/>
</svg>
